<?xml version="1.0" encoding="utf-8"?><!-- Uploaded to: SVG Repo, www.svgrepo.com, Generator: SVG Repo Mixer Tools -->
<svg fill="#000000" width="800px" height="800px" viewBox="0 0 1024 1024" xmlns="http://www.w3.org/2000/svg"><path d="M790.796 69.974c97.638 62.577 145.937 166.195 102.252 234.363-43.684 68.155-158.009 67.533-255.638 4.954-20.554-13.167-39.158-28.34-55.278-44.914-29.344 49.669-75.064 96.12-131.427 132.248-137.525 88.148-297.307 89.01-357.183-4.41-59.874-93.429 7.635-238.242 145.158-326.379 120.735-77.387 259.611-87.9 332.142-24.458 55.457-31.939 143.36-20.514 219.974 28.595zm-22.103 34.485C697.992 59.14 619.007 52.323 581.575 83.608c-8.543 7.14-21.224 6.147-28.552-2.235-51.882-59.346-178.937-53.675-292.24 18.949C139.921 177.78 83 299.883 128.008 370.114c45.007 70.222 179.733 69.495 300.594-7.973 60.266-38.629 106.678-89.872 130.682-142.285 6.407-13.989 25.374-16.182 34.804-4.023 17.11 22.063 39.407 42.305 65.422 58.971 80.971 51.901 170.239 52.387 199.054 7.431 28.82-44.972-8.893-125.879-89.869-177.777zM644.292 725.473c-23.084 56.99-78.553 95.067-141.1 95.067-64.658 0-121.603-40.688-143.194-100.515-3.84-10.639-15.577-16.151-26.216-12.312s-16.151 15.577-12.312 26.216C348.875 809.866 421.137 861.5 503.191 861.5c79.372 0 149.768-48.323 179.064-120.649 4.246-10.483-.81-22.424-11.293-26.671s-22.424.81-26.671 11.293zM431.539 564.727c0 35.809-29.03 64.84-64.84 64.84-35.799 0-64.829-29.03-64.829-64.84s29.03-64.829 64.829-64.829c35.809 0 64.84 29.02 64.84 64.829zm286.035 0c0 35.809-29.03 64.84-64.829 64.84-35.809 0-64.84-29.03-64.84-64.84s29.03-64.829 64.84-64.829c35.799 0 64.829 29.02 64.829 64.829z"/><path d="M830.028 354.497c48.869 67.116 75.6 147.862 75.6 232.691 0 218.621-177.252 395.858-395.899 395.858-218.655 0-395.909-177.236-395.909-395.858 0-58.221 12.576-114.635 36.531-166.306 4.757-10.262.295-22.437-9.966-27.194s-22.437-.295-27.194 9.966c-26.445 57.04-40.33 119.33-40.33 183.534 0 241.245 195.593 436.818 436.869 436.818 241.267 0 436.859-195.575 436.859-436.818 0-93.567-29.521-182.738-83.448-256.801-6.658-9.144-19.467-11.159-28.611-4.501s-11.159 19.467-4.501 28.611z"/></svg>