<?xml version="1.0" encoding="utf-8"?><!-- Uploaded to: SVG Repo, www.svgrepo.com, Generator: SVG Repo Mixer Tools -->
<svg fill="#000000" width="800px" height="800px" viewBox="0 0 1024 1024" xmlns="http://www.w3.org/2000/svg"><path d="M644.38 710.114c-21.088 52.039-71.732 86.806-128.844 86.806-59.023 0-111.022-37.159-130.731-91.78-3.839-10.639-15.576-16.152-26.216-12.313s-16.152 15.576-12.313 26.216c25.523 70.732 92.839 118.837 169.26 118.837 73.937 0 139.505-45.012 166.805-112.383 4.248-10.483-.806-22.424-11.289-26.672s-22.424.806-26.672 11.289zM443.965 572.09c0 33.065-26.798 59.863-59.863 59.863-33.055 0-59.863-26.798-59.863-59.863s26.808-59.863 59.863-59.863c33.065 0 59.863 26.798 59.863 59.863zm264.115 0c0 33.065-26.798 59.863-59.873 59.863-33.055 0-59.853-26.798-59.853-59.863s26.798-59.863 59.853-59.863c33.075 0 59.873 26.798 59.873 59.863z"/><path d="M828.728 421.744c33.48 55.929 51.415 119.916 51.415 186.591 0 200.985-162.965 363.93-363.981 363.93-201.022 0-363.981-162.941-363.981-363.93 0-69.399 19.435-135.867 55.547-193.341 6.017-9.577 3.132-22.219-6.446-28.237s-22.219-3.132-28.237 6.446c-40.184 63.955-61.824 137.966-61.824 215.132 0 223.611 181.298 404.89 404.941 404.89 223.636 0 404.941-181.282 404.941-404.89 0-74.136-19.971-145.385-57.231-207.629-5.809-9.705-18.386-12.863-28.091-7.053s-12.863 18.386-7.053 28.091z"/><path d="M174.775 769.565H54.68c-7.576 0-13.722-6.144-13.722-13.722v-218.88c0-262.63 212.895-475.525 475.525-475.525 257.671 0 466.555 208.89 466.555 466.565v227.84c0 7.583-6.14 13.722-13.732 13.722H863.179c-11.311 0-20.48 9.169-20.48 20.48s9.169 20.48 20.48 20.48h106.127c30.211 0 54.692-24.475 54.692-54.682v-227.84c0-280.297-227.222-507.525-507.515-507.525C231.232 20.478-.002 251.712-.002 536.963v218.88c0 30.201 24.486 54.682 54.682 54.682h120.095c11.311 0 20.48-9.169 20.48-20.48s-9.169-20.48-20.48-20.48z"/><path d="M191.305 425.21h650.353c11.311 0 20.48-9.169 20.48-20.48s-9.169-20.48-20.48-20.48H191.305c-11.311 0-20.48 9.169-20.48 20.48s9.169 20.48 20.48 20.48z"/></svg>